<?xml version="1.0" encoding="UTF-8" standalone="no"?><svg xmlns="http://www.w3.org/2000/svg" xmlns:xlink="http://www.w3.org/1999/xlink" contentScriptType="application/ecmascript" contentStyleType="text/css" height="390px" preserveAspectRatio="none" style="width:1020px;height:390px;" version="1.1" viewBox="0 0 1020 390" width="1020px" zoomAndPan="magnify"><defs/><g><text fill="#000000" font-family="sans-serif" font-size="18" lengthAdjust="spacingAndGlyphs" textLength="179" x="417" y="26.708">State transition flow</text><line style="stroke: #000000; stroke-width: 1.7;" x1="10" x2="10" y1="30.9531" y2="330.7656"/><line style="stroke: #000000; stroke-width: 1.7;" x1="1003" x2="1003" y1="30.9531" y2="330.7656"/><line style="stroke: #AAAAAA; stroke-width: 0.5; stroke-dasharray: 3.0,5.0;" x1="98" x2="98" y1="30.9531" y2="330.7656"/><line style="stroke: #AAAAAA; stroke-width: 0.5; stroke-dasharray: 3.0,5.0;" x1="148" x2="148" y1="30.9531" y2="330.7656"/><line style="stroke: #AAAAAA; stroke-width: 0.5; stroke-dasharray: 3.0,5.0;" x1="198" x2="198" y1="30.9531" y2="330.7656"/><line style="stroke: #AAAAAA; stroke-width: 0.5; stroke-dasharray: 3.0,5.0;" x1="248" x2="248" y1="30.9531" y2="330.7656"/><line style="stroke: #AAAAAA; stroke-width: 0.5; stroke-dasharray: 3.0,5.0;" x1="298" x2="298" y1="30.9531" y2="330.7656"/><line style="stroke: #AAAAAA; stroke-width: 0.5; stroke-dasharray: 3.0,5.0;" x1="348" x2="348" y1="30.9531" y2="330.7656"/><line style="stroke: #AAAAAA; stroke-width: 0.5; stroke-dasharray: 3.0,5.0;" x1="398" x2="398" y1="30.9531" y2="330.7656"/><line style="stroke: #AAAAAA; stroke-width: 0.5; stroke-dasharray: 3.0,5.0;" x1="448" x2="448" y1="30.9531" y2="330.7656"/><line style="stroke: #AAAAAA; stroke-width: 0.5; stroke-dasharray: 3.0,5.0;" x1="498" x2="498" y1="30.9531" y2="330.7656"/><line style="stroke: #AAAAAA; stroke-width: 0.5; stroke-dasharray: 3.0,5.0;" x1="548" x2="548" y1="30.9531" y2="330.7656"/><line style="stroke: #AAAAAA; stroke-width: 0.5; stroke-dasharray: 3.0,5.0;" x1="598" x2="598" y1="30.9531" y2="330.7656"/><line style="stroke: #AAAAAA; stroke-width: 0.5; stroke-dasharray: 3.0,5.0;" x1="648" x2="648" y1="30.9531" y2="330.7656"/><line style="stroke: #AAAAAA; stroke-width: 0.5; stroke-dasharray: 3.0,5.0;" x1="698" x2="698" y1="30.9531" y2="330.7656"/><line style="stroke: #AAAAAA; stroke-width: 0.5; stroke-dasharray: 3.0,5.0;" x1="748" x2="748" y1="30.9531" y2="330.7656"/><line style="stroke: #AAAAAA; stroke-width: 0.5; stroke-dasharray: 3.0,5.0;" x1="798" x2="798" y1="30.9531" y2="330.7656"/><line style="stroke: #AAAAAA; stroke-width: 0.5; stroke-dasharray: 3.0,5.0;" x1="848" x2="848" y1="30.9531" y2="330.7656"/><line style="stroke: #AAAAAA; stroke-width: 0.5; stroke-dasharray: 3.0,5.0;" x1="898" x2="898" y1="30.9531" y2="330.7656"/><line style="stroke: #AAAAAA; stroke-width: 0.5; stroke-dasharray: 3.0,5.0;" x1="948" x2="948" y1="30.9531" y2="330.7656"/><line style="stroke: #AAAAAA; stroke-width: 0.5; stroke-dasharray: 3.0,5.0;" x1="998" x2="998" y1="30.9531" y2="330.7656"/><text fill="#000000" font-family="sans-serif" font-size="12" lengthAdjust="spacingAndGlyphs" textLength="104" x="15" y="42.0918">Actual error rate</text><line style="stroke: #000000; stroke-width: 1.0;" x1="10" x2="120" y1="45.9219" y2="45.9219"/><line style="stroke: #000000; stroke-width: 1.0;" x1="120" x2="130" y1="45.9219" y2="30.9531"/><line style="stroke: #038048; stroke-width: 1.5;" x1="98" x2="148" y1="138.8906" y2="138.8906"/><line style="stroke: #038048; stroke-width: 1.5;" x1="148" x2="198" y1="118.8906" y2="118.8906"/><line style="stroke: #038048; stroke-width: 1.5;" x1="198" x2="348" y1="98.8906" y2="98.8906"/><line style="stroke: #038048; stroke-width: 1.5;" x1="348" x2="448" y1="118.8906" y2="118.8906"/><line style="stroke: #038048; stroke-width: 1.5;" x1="448" x2="648" y1="78.8906" y2="78.8906"/><line style="stroke: #038048; stroke-width: 1.5;" x1="648" x2="848" y1="58.8906" y2="58.8906"/><line style="stroke: #038048; stroke-width: 1.5;" x1="848" x2="998" y1="118.8906" y2="118.8906"/><line style="stroke: #038048; stroke-width: 1.5;" x1="148" x2="148" y1="118.8906" y2="138.8906"/><line style="stroke: #038048; stroke-width: 1.5;" x1="198" x2="198" y1="98.8906" y2="118.8906"/><line style="stroke: #038048; stroke-width: 1.5;" x1="348" x2="348" y1="98.8906" y2="118.8906"/><line style="stroke: #038048; stroke-width: 1.5;" x1="448" x2="448" y1="78.8906" y2="118.8906"/><line style="stroke: #038048; stroke-width: 1.5;" x1="648" x2="648" y1="58.8906" y2="78.8906"/><line style="stroke: #038048; stroke-width: 1.5;" x1="848" x2="848" y1="58.8906" y2="118.8906"/><text fill="#000000" font-family="sans-serif" font-size="12" lengthAdjust="spacingAndGlyphs" textLength="20" x="15" y="136.0605">0.0</text><text fill="#000000" font-family="sans-serif" font-size="12" lengthAdjust="spacingAndGlyphs" textLength="20" x="15" y="116.0605">0.4</text><text fill="#000000" font-family="sans-serif" font-size="12" lengthAdjust="spacingAndGlyphs" textLength="20" x="15" y="96.0605">0.5</text><text fill="#000000" font-family="sans-serif" font-size="12" lengthAdjust="spacingAndGlyphs" textLength="20" x="15" y="76.0605">0.6</text><text fill="#000000" font-family="sans-serif" font-size="12" lengthAdjust="spacingAndGlyphs" textLength="20" x="15" y="56.0605">0.7</text><line style="stroke: #000000; stroke-width: 1.7;" x1="10" x2="1003" y1="30.9531" y2="30.9531"/><text fill="#000000" font-family="sans-serif" font-size="12" lengthAdjust="spacingAndGlyphs" textLength="62" x="15" y="180.0293">Call result</text><line style="stroke: #000000; stroke-width: 1.0;" x1="10" x2="78" y1="183.8594" y2="183.8594"/><line style="stroke: #000000; stroke-width: 1.0;" x1="78" x2="88" y1="183.8594" y2="168.8906"/><line style="stroke: #038048; stroke-width: 1.5;" x1="98" x2="148" y1="236.8281" y2="236.8281"/><rect fill="#D7E0F2" height="20" style="stroke: #038048; stroke-width: 1.5;" width="50" x="148" y="216.8281"/><line style="stroke: #038048; stroke-width: 1.5;" x1="148" x2="148" y1="216.8281" y2="236.8281"/><line style="stroke: #038048; stroke-width: 1.5;" x1="153" x2="153" y1="216.8281" y2="236.8281"/><line style="stroke: #038048; stroke-width: 1.5;" x1="158" x2="158" y1="216.8281" y2="236.8281"/><line style="stroke: #038048; stroke-width: 1.5;" x1="163" x2="163" y1="216.8281" y2="236.8281"/><line style="stroke: #038048; stroke-width: 1.5;" x1="168" x2="168" y1="216.8281" y2="236.8281"/><line style="stroke: #038048; stroke-width: 1.5;" x1="173" x2="173" y1="216.8281" y2="236.8281"/><line style="stroke: #038048; stroke-width: 1.5;" x1="178" x2="178" y1="216.8281" y2="236.8281"/><line style="stroke: #038048; stroke-width: 1.5;" x1="183" x2="183" y1="216.8281" y2="236.8281"/><line style="stroke: #038048; stroke-width: 1.5;" x1="188" x2="188" y1="216.8281" y2="236.8281"/><line style="stroke: #038048; stroke-width: 1.5;" x1="193" x2="193" y1="216.8281" y2="236.8281"/><line style="stroke: #038048; stroke-width: 1.5;" x1="148" x2="198" y1="236.8281" y2="236.8281"/><line style="stroke: #038048; stroke-width: 1.5;" x1="148" x2="198" y1="216.8281" y2="216.8281"/><line style="stroke: #038048; stroke-width: 1.5;" x1="198" x2="298" y1="196.8281" y2="196.8281"/><rect fill="#D7E0F2" height="40" style="stroke: #038048; stroke-width: 1.5;" width="50" x="298" y="196.8281"/><line style="stroke: #038048; stroke-width: 1.5;" x1="298" x2="298" y1="196.8281" y2="236.8281"/><line style="stroke: #038048; stroke-width: 1.5;" x1="303" x2="303" y1="196.8281" y2="236.8281"/><line style="stroke: #038048; stroke-width: 1.5;" x1="308" x2="308" y1="196.8281" y2="236.8281"/><line style="stroke: #038048; stroke-width: 1.5;" x1="313" x2="313" y1="196.8281" y2="236.8281"/><line style="stroke: #038048; stroke-width: 1.5;" x1="318" x2="318" y1="196.8281" y2="236.8281"/><line style="stroke: #038048; stroke-width: 1.5;" x1="323" x2="323" y1="196.8281" y2="236.8281"/><line style="stroke: #038048; stroke-width: 1.5;" x1="328" x2="328" y1="196.8281" y2="236.8281"/><line style="stroke: #038048; stroke-width: 1.5;" x1="333" x2="333" y1="196.8281" y2="236.8281"/><line style="stroke: #038048; stroke-width: 1.5;" x1="338" x2="338" y1="196.8281" y2="236.8281"/><line style="stroke: #038048; stroke-width: 1.5;" x1="343" x2="343" y1="196.8281" y2="236.8281"/><line style="stroke: #038048; stroke-width: 1.5;" x1="298" x2="348" y1="236.8281" y2="236.8281"/><line style="stroke: #038048; stroke-width: 1.5;" x1="298" x2="348" y1="196.8281" y2="196.8281"/><line style="stroke: #038048; stroke-width: 1.5;" x1="348" x2="398" y1="236.8281" y2="236.8281"/><line style="stroke: #038048; stroke-width: 1.5;" x1="398" x2="448" y1="236.8281" y2="236.8281"/><rect fill="#D7E0F2" height="20" style="stroke: #038048; stroke-width: 1.5;" width="50" x="448" y="216.8281"/><line style="stroke: #038048; stroke-width: 1.5;" x1="448" x2="448" y1="216.8281" y2="236.8281"/><line style="stroke: #038048; stroke-width: 1.5;" x1="453" x2="453" y1="216.8281" y2="236.8281"/><line style="stroke: #038048; stroke-width: 1.5;" x1="458" x2="458" y1="216.8281" y2="236.8281"/><line style="stroke: #038048; stroke-width: 1.5;" x1="463" x2="463" y1="216.8281" y2="236.8281"/><line style="stroke: #038048; stroke-width: 1.5;" x1="468" x2="468" y1="216.8281" y2="236.8281"/><line style="stroke: #038048; stroke-width: 1.5;" x1="473" x2="473" y1="216.8281" y2="236.8281"/><line style="stroke: #038048; stroke-width: 1.5;" x1="478" x2="478" y1="216.8281" y2="236.8281"/><line style="stroke: #038048; stroke-width: 1.5;" x1="483" x2="483" y1="216.8281" y2="236.8281"/><line style="stroke: #038048; stroke-width: 1.5;" x1="488" x2="488" y1="216.8281" y2="236.8281"/><line style="stroke: #038048; stroke-width: 1.5;" x1="493" x2="493" y1="216.8281" y2="236.8281"/><line style="stroke: #038048; stroke-width: 1.5;" x1="448" x2="498" y1="236.8281" y2="236.8281"/><line style="stroke: #038048; stroke-width: 1.5;" x1="448" x2="498" y1="216.8281" y2="216.8281"/><line style="stroke: #038048; stroke-width: 1.5;" x1="498" x2="598" y1="196.8281" y2="196.8281"/><rect fill="#D7E0F2" height="20" style="stroke: #038048; stroke-width: 1.5;" width="200" x="598" y="196.8281"/><line style="stroke: #038048; stroke-width: 1.5;" x1="598" x2="598" y1="196.8281" y2="216.8281"/><line style="stroke: #038048; stroke-width: 1.5;" x1="603" x2="603" y1="196.8281" y2="216.8281"/><line style="stroke: #038048; stroke-width: 1.5;" x1="608" x2="608" y1="196.8281" y2="216.8281"/><line style="stroke: #038048; stroke-width: 1.5;" x1="613" x2="613" y1="196.8281" y2="216.8281"/><line style="stroke: #038048; stroke-width: 1.5;" x1="618" x2="618" y1="196.8281" y2="216.8281"/><line style="stroke: #038048; stroke-width: 1.5;" x1="623" x2="623" y1="196.8281" y2="216.8281"/><line style="stroke: #038048; stroke-width: 1.5;" x1="628" x2="628" y1="196.8281" y2="216.8281"/><line style="stroke: #038048; stroke-width: 1.5;" x1="633" x2="633" y1="196.8281" y2="216.8281"/><line style="stroke: #038048; stroke-width: 1.5;" x1="638" x2="638" y1="196.8281" y2="216.8281"/><line style="stroke: #038048; stroke-width: 1.5;" x1="643" x2="643" y1="196.8281" y2="216.8281"/><line style="stroke: #038048; stroke-width: 1.5;" x1="648" x2="648" y1="196.8281" y2="216.8281"/><line style="stroke: #038048; stroke-width: 1.5;" x1="653" x2="653" y1="196.8281" y2="216.8281"/><line style="stroke: #038048; stroke-width: 1.5;" x1="658" x2="658" y1="196.8281" y2="216.8281"/><line style="stroke: #038048; stroke-width: 1.5;" x1="663" x2="663" y1="196.8281" y2="216.8281"/><line style="stroke: #038048; stroke-width: 1.5;" x1="668" x2="668" y1="196.8281" y2="216.8281"/><line style="stroke: #038048; stroke-width: 1.5;" x1="673" x2="673" y1="196.8281" y2="216.8281"/><line style="stroke: #038048; stroke-width: 1.5;" x1="678" x2="678" y1="196.8281" y2="216.8281"/><line style="stroke: #038048; stroke-width: 1.5;" x1="683" x2="683" y1="196.8281" y2="216.8281"/><line style="stroke: #038048; stroke-width: 1.5;" x1="688" x2="688" y1="196.8281" y2="216.8281"/><line style="stroke: #038048; stroke-width: 1.5;" x1="693" x2="693" y1="196.8281" y2="216.8281"/><line style="stroke: #038048; stroke-width: 1.5;" x1="698" x2="698" y1="196.8281" y2="216.8281"/><line style="stroke: #038048; stroke-width: 1.5;" x1="703" x2="703" y1="196.8281" y2="216.8281"/><line style="stroke: #038048; stroke-width: 1.5;" x1="708" x2="708" y1="196.8281" y2="216.8281"/><line style="stroke: #038048; stroke-width: 1.5;" x1="713" x2="713" y1="196.8281" y2="216.8281"/><line style="stroke: #038048; stroke-width: 1.5;" x1="718" x2="718" y1="196.8281" y2="216.8281"/><line style="stroke: #038048; stroke-width: 1.5;" x1="723" x2="723" y1="196.8281" y2="216.8281"/><line style="stroke: #038048; stroke-width: 1.5;" x1="728" x2="728" y1="196.8281" y2="216.8281"/><line style="stroke: #038048; stroke-width: 1.5;" x1="733" x2="733" y1="196.8281" y2="216.8281"/><line style="stroke: #038048; stroke-width: 1.5;" x1="738" x2="738" y1="196.8281" y2="216.8281"/><line style="stroke: #038048; stroke-width: 1.5;" x1="743" x2="743" y1="196.8281" y2="216.8281"/><line style="stroke: #038048; stroke-width: 1.5;" x1="748" x2="748" y1="196.8281" y2="216.8281"/><line style="stroke: #038048; stroke-width: 1.5;" x1="753" x2="753" y1="196.8281" y2="216.8281"/><line style="stroke: #038048; stroke-width: 1.5;" x1="758" x2="758" y1="196.8281" y2="216.8281"/><line style="stroke: #038048; stroke-width: 1.5;" x1="763" x2="763" y1="196.8281" y2="216.8281"/><line style="stroke: #038048; stroke-width: 1.5;" x1="768" x2="768" y1="196.8281" y2="216.8281"/><line style="stroke: #038048; stroke-width: 1.5;" x1="773" x2="773" y1="196.8281" y2="216.8281"/><line style="stroke: #038048; stroke-width: 1.5;" x1="778" x2="778" y1="196.8281" y2="216.8281"/><line style="stroke: #038048; stroke-width: 1.5;" x1="783" x2="783" y1="196.8281" y2="216.8281"/><line style="stroke: #038048; stroke-width: 1.5;" x1="788" x2="788" y1="196.8281" y2="216.8281"/><line style="stroke: #038048; stroke-width: 1.5;" x1="793" x2="793" y1="196.8281" y2="216.8281"/><line style="stroke: #038048; stroke-width: 1.5;" x1="598" x2="798" y1="216.8281" y2="216.8281"/><line style="stroke: #038048; stroke-width: 1.5;" x1="598" x2="798" y1="196.8281" y2="196.8281"/><rect fill="#D7E0F2" height="40" style="stroke: #038048; stroke-width: 1.5;" width="50" x="798" y="196.8281"/><line style="stroke: #038048; stroke-width: 1.5;" x1="798" x2="798" y1="196.8281" y2="236.8281"/><line style="stroke: #038048; stroke-width: 1.5;" x1="803" x2="803" y1="196.8281" y2="236.8281"/><line style="stroke: #038048; stroke-width: 1.5;" x1="808" x2="808" y1="196.8281" y2="236.8281"/><line style="stroke: #038048; stroke-width: 1.5;" x1="813" x2="813" y1="196.8281" y2="236.8281"/><line style="stroke: #038048; stroke-width: 1.5;" x1="818" x2="818" y1="196.8281" y2="236.8281"/><line style="stroke: #038048; stroke-width: 1.5;" x1="823" x2="823" y1="196.8281" y2="236.8281"/><line style="stroke: #038048; stroke-width: 1.5;" x1="828" x2="828" y1="196.8281" y2="236.8281"/><line style="stroke: #038048; stroke-width: 1.5;" x1="833" x2="833" y1="196.8281" y2="236.8281"/><line style="stroke: #038048; stroke-width: 1.5;" x1="838" x2="838" y1="196.8281" y2="236.8281"/><line style="stroke: #038048; stroke-width: 1.5;" x1="843" x2="843" y1="196.8281" y2="236.8281"/><line style="stroke: #038048; stroke-width: 1.5;" x1="798" x2="848" y1="236.8281" y2="236.8281"/><line style="stroke: #038048; stroke-width: 1.5;" x1="798" x2="848" y1="196.8281" y2="196.8281"/><line style="stroke: #038048; stroke-width: 1.5;" x1="848" x2="998" y1="236.8281" y2="236.8281"/><line style="stroke: #038048; stroke-width: 1.5;" x1="148" x2="148" y1="216.8281" y2="236.8281"/><line style="stroke: #038048; stroke-width: 1.5;" x1="198" x2="198" y1="196.8281" y2="236.8281"/><line style="stroke: #038048; stroke-width: 1.5;" x1="298" x2="298" y1="196.8281" y2="236.8281"/><line style="stroke: #038048; stroke-width: 1.5;" x1="348" x2="348" y1="196.8281" y2="236.8281"/><line style="stroke: #038048; stroke-width: 1.5;" x1="398" x2="398" y1="236.8281" y2="236.8281"/><line style="stroke: #038048; stroke-width: 1.5;" x1="448" x2="448" y1="216.8281" y2="236.8281"/><line style="stroke: #038048; stroke-width: 1.5;" x1="498" x2="498" y1="196.8281" y2="236.8281"/><line style="stroke: #038048; stroke-width: 1.5;" x1="598" x2="598" y1="196.8281" y2="216.8281"/><line style="stroke: #038048; stroke-width: 1.5;" x1="798" x2="798" y1="196.8281" y2="236.8281"/><line style="stroke: #038048; stroke-width: 1.5;" x1="848" x2="848" y1="196.8281" y2="236.8281"/><text fill="#000000" font-family="sans-serif" font-size="12" lengthAdjust="spacingAndGlyphs" textLength="16" x="15" y="233.998">OK</text><text fill="#000000" font-family="sans-serif" font-size="12" lengthAdjust="spacingAndGlyphs" textLength="41" x="15" y="213.998">ERROR</text><text fill="#000000" font-family="sans-serif" font-size="12" lengthAdjust="spacingAndGlyphs" textLength="83" x="15" y="193.998">CircuitBroken</text><line style="stroke: #000000; stroke-width: 1.7;" x1="10" x2="1003" y1="168.8906" y2="168.8906"/><text fill="#000000" font-family="sans-serif" font-size="12" lengthAdjust="spacingAndGlyphs" textLength="90" x="15" y="277.9668">Effective state</text><line style="stroke: #000000; stroke-width: 1.0;" x1="10" x2="106" y1="281.7969" y2="281.7969"/><line style="stroke: #000000; stroke-width: 1.0;" x1="106" x2="116" y1="281.7969" y2="266.8281"/><polygon fill="#CCFFCC" points="110,288.7656,186,288.7656,198,300.7656,186,312.7656,110,312.7656,98,300.7656" style="stroke: #038048; stroke-width: 1.5;"/><polygon fill="#FFCCCC" points="210,288.7656,286,288.7656,298,300.7656,286,312.7656,210,312.7656,198,300.7656" style="stroke: #038048; stroke-width: 1.5;"/><polygon fill="#FFFFCC" points="310,288.7656,386,288.7656,398,300.7656,386,312.7656,310,312.7656,298,300.7656" style="stroke: #038048; stroke-width: 1.5;"/><polygon fill="#CCFFCC" points="410,288.7656,486,288.7656,498,300.7656,486,312.7656,410,312.7656,398,300.7656" style="stroke: #038048; stroke-width: 1.5;"/><polygon fill="#FFCCCC" points="510,288.7656,586,288.7656,598,300.7656,586,312.7656,510,312.7656,498,300.7656" style="stroke: #038048; stroke-width: 1.5;"/><polygon fill="#FFFFCC" points="610,288.7656,686,288.7656,698,300.7656,686,312.7656,610,312.7656,598,300.7656" style="stroke: #038048; stroke-width: 1.5;"/><polygon fill="#FFCCCC" points="710,288.7656,786,288.7656,798,300.7656,786,312.7656,710,312.7656,698,300.7656" style="stroke: #038048; stroke-width: 1.5;"/><polygon fill="#FFFFCC" points="810,288.7656,886,288.7656,898,300.7656,886,312.7656,810,312.7656,798,300.7656" style="stroke: #038048; stroke-width: 1.5;"/><polygon fill="#CCFFCC" points="910,288.7656,998,288.7656,998,312.7656,910,312.7656,898,300.7656" style="stroke: #CCFFCC; stroke-width: 1.5;"/><path d="M998,288.7656 L910,288.7656 L898,300.7656 L910,312.7656 L998,312.7656 " fill="#CCFFCC" style="stroke: #038048; stroke-width: 1.5;"/><text fill="#000000" font-family="sans-serif" font-size="12" lengthAdjust="spacingAndGlyphs" textLength="53" x="121.5" y="304.9199">PASSING</text><text fill="#000000" font-family="sans-serif" font-size="12" lengthAdjust="spacingAndGlyphs" textLength="82" x="110" y="285.9355">passing_time</text><text fill="#000000" font-family="sans-serif" font-size="12" lengthAdjust="spacingAndGlyphs" textLength="49" x="223.5" y="304.9199">BROKEN</text><text fill="#000000" font-family="sans-serif" font-size="12" lengthAdjust="spacingAndGlyphs" textLength="77" x="210" y="285.9355">broken_time</text><text fill="#000000" font-family="sans-serif" font-size="12" lengthAdjust="spacingAndGlyphs" textLength="78" x="309" y="304.9199">RECOVERING</text><text fill="#000000" font-family="sans-serif" font-size="12" lengthAdjust="spacingAndGlyphs" textLength="86" x="310" y="285.9355">recovery_time</text><text fill="#000000" font-family="sans-serif" font-size="12" lengthAdjust="spacingAndGlyphs" textLength="53" x="421.5" y="304.9199">PASSING</text><text fill="#000000" font-family="sans-serif" font-size="12" lengthAdjust="spacingAndGlyphs" textLength="49" x="523.5" y="304.9199">BROKEN</text><text fill="#000000" font-family="sans-serif" font-size="12" lengthAdjust="spacingAndGlyphs" textLength="78" x="609" y="304.9199">RECOVERING</text><text fill="#000000" font-family="sans-serif" font-size="12" lengthAdjust="spacingAndGlyphs" textLength="49" x="723.5" y="304.9199">BROKEN</text><text fill="#000000" font-family="sans-serif" font-size="12" lengthAdjust="spacingAndGlyphs" textLength="78" x="809" y="304.9199">RECOVERING</text><text fill="#000000" font-family="sans-serif" font-size="12" lengthAdjust="spacingAndGlyphs" textLength="53" x="910" y="304.9199">PASSING</text><line style="stroke: #000000; stroke-width: 1.7;" x1="10" x2="1003" y1="266.8281" y2="266.8281"/><line style="stroke: #000000; stroke-width: 2.0;" x1="98" x2="98" y1="330.7656" y2="335.7656"/><line style="stroke: #000000; stroke-width: 2.0;" x1="148" x2="148" y1="330.7656" y2="335.7656"/><line style="stroke: #000000; stroke-width: 2.0;" x1="198" x2="198" y1="330.7656" y2="335.7656"/><line style="stroke: #000000; stroke-width: 2.0;" x1="248" x2="248" y1="330.7656" y2="335.7656"/><line style="stroke: #000000; stroke-width: 2.0;" x1="298" x2="298" y1="330.7656" y2="335.7656"/><line style="stroke: #000000; stroke-width: 2.0;" x1="348" x2="348" y1="330.7656" y2="335.7656"/><line style="stroke: #000000; stroke-width: 2.0;" x1="398" x2="398" y1="330.7656" y2="335.7656"/><line style="stroke: #000000; stroke-width: 2.0;" x1="448" x2="448" y1="330.7656" y2="335.7656"/><line style="stroke: #000000; stroke-width: 2.0;" x1="498" x2="498" y1="330.7656" y2="335.7656"/><line style="stroke: #000000; stroke-width: 2.0;" x1="548" x2="548" y1="330.7656" y2="335.7656"/><line style="stroke: #000000; stroke-width: 2.0;" x1="598" x2="598" y1="330.7656" y2="335.7656"/><line style="stroke: #000000; stroke-width: 2.0;" x1="648" x2="648" y1="330.7656" y2="335.7656"/><line style="stroke: #000000; stroke-width: 2.0;" x1="698" x2="698" y1="330.7656" y2="335.7656"/><line style="stroke: #000000; stroke-width: 2.0;" x1="748" x2="748" y1="330.7656" y2="335.7656"/><line style="stroke: #000000; stroke-width: 2.0;" x1="798" x2="798" y1="330.7656" y2="335.7656"/><line style="stroke: #000000; stroke-width: 2.0;" x1="848" x2="848" y1="330.7656" y2="335.7656"/><line style="stroke: #000000; stroke-width: 2.0;" x1="898" x2="898" y1="330.7656" y2="335.7656"/><line style="stroke: #000000; stroke-width: 2.0;" x1="948" x2="948" y1="330.7656" y2="335.7656"/><line style="stroke: #000000; stroke-width: 2.0;" x1="998" x2="998" y1="330.7656" y2="335.7656"/><line style="stroke: #000000; stroke-width: 2.0;" x1="98" x2="998" y1="330.7656" y2="330.7656"/><text fill="#000000" font-family="sans-serif" font-size="12" lengthAdjust="spacingAndGlyphs" textLength="8" x="94" y="347.9043">0</text><text fill="#000000" font-family="sans-serif" font-size="12" lengthAdjust="spacingAndGlyphs" textLength="8" x="144" y="347.9043">5</text><text fill="#000000" font-family="sans-serif" font-size="12" lengthAdjust="spacingAndGlyphs" textLength="16" x="190" y="347.9043">10</text><text fill="#000000" font-family="sans-serif" font-size="12" lengthAdjust="spacingAndGlyphs" textLength="16" x="290" y="347.9043">20</text><text fill="#000000" font-family="sans-serif" font-size="12" lengthAdjust="spacingAndGlyphs" textLength="16" x="340" y="347.9043">25</text><text fill="#000000" font-family="sans-serif" font-size="12" lengthAdjust="spacingAndGlyphs" textLength="16" x="390" y="347.9043">30</text><text fill="#000000" font-family="sans-serif" font-size="12" lengthAdjust="spacingAndGlyphs" textLength="16" x="440" y="347.9043">35</text><text fill="#000000" font-family="sans-serif" font-size="12" lengthAdjust="spacingAndGlyphs" textLength="16" x="490" y="347.9043">40</text><text fill="#000000" font-family="sans-serif" font-size="12" lengthAdjust="spacingAndGlyphs" textLength="16" x="590" y="347.9043">50</text><text fill="#000000" font-family="sans-serif" font-size="12" lengthAdjust="spacingAndGlyphs" textLength="16" x="640" y="347.9043">55</text><text fill="#000000" font-family="sans-serif" font-size="12" lengthAdjust="spacingAndGlyphs" textLength="16" x="690" y="347.9043">60</text><text fill="#000000" font-family="sans-serif" font-size="12" lengthAdjust="spacingAndGlyphs" textLength="16" x="790" y="347.9043">70</text><text fill="#000000" font-family="sans-serif" font-size="12" lengthAdjust="spacingAndGlyphs" textLength="16" x="840" y="347.9043">75</text><text fill="#000000" font-family="sans-serif" font-size="12" lengthAdjust="spacingAndGlyphs" textLength="16" x="890" y="347.9043">80</text><text fill="#000000" font-family="sans-serif" font-size="12" lengthAdjust="spacingAndGlyphs" textLength="16" x="940" y="347.9043">85</text><rect fill="#DDDDDD" height="26.2969" rx="5" ry="5" style="stroke: #000000; stroke-width: 1.0;" width="363" x="324.5" y="352.7344"/><text fill="#000000" font-family="sans-serif" font-size="14" lengthAdjust="spacingAndGlyphs" textLength="351" x="330.5" y="370.7295">CircuitBereaker(error_rate=0.5, recovery_time=10)</text><!--
@startuml
title: State transition flow

legend
CircuitBereaker(error_rate=0.5, recovery_time=10)
end legend

robust "Actual error rate" as err
robust "Call result" as cr
concise "Effective state" as es

@0
es is PASSING #ccffcc: passing_time
cr is OK
err is 0.0

@+5
err is 0.4
cr is {OK,ERROR}
@+5
err is 0.5
es is BROKEN #ffcccc: broken_time
cr is CircuitBroken

@+10
es is RECOVERING #ffffcc: recovery_time
cr is {OK,CircuitBroken}

@+5
err is 0.4
cr is OK

@+5
es is PASSING #ccffcc
cr is OK

@+5
err is 0.6
cr is {OK,ERROR}

@+5
es is BROKEN #ffcccc
cr is CircuitBroken

@+10
es is RECOVERING #ffffcc
cr is {ERROR,CircuitBroken}

@+5
err is 0.7

@+5
es is BROKEN #ffcccc

@+10
es is RECOVERING #ffffcc
cr is {OK,CircuitBroken}

@+5
err is 0.4
cr is OK

@+5
es is PASSING #ccffcc

@+5

@enduml

PlantUML version 1.2019.05(Sat Apr 20 16:45:36 UTC 2019)
(GPL source distribution)
Java Runtime: OpenJDK Runtime Environment
JVM: OpenJDK 64-Bit Server VM
Java Version: 11.0.3+1-Debian-1bpo91
Operating System: Linux
OS Version: 4.9.184-linuxkit
Default Encoding: UTF-8
Language: en
Country: null
--></g></svg>