<?xml version="1.0" encoding="UTF-8" standalone="no"?><svg xmlns="http://www.w3.org/2000/svg" xmlns:xlink="http://www.w3.org/1999/xlink" contentScriptType="application/ecmascript" contentStyleType="text/css" height="354px" preserveAspectRatio="none" style="width:995px;height:354px;" version="1.1" viewBox="0 0 995 354" width="995px" zoomAndPan="magnify"><defs/><rect width="100%" height="100%" fill="white"/><g><text fill="#000000" font-family="sans-serif" font-size="18" lengthAdjust="spacing" textLength="131" x="428.5" y="26.708">Execution flow</text><line style="stroke:#000000;stroke-width:1.7;" x1="10" x2="10" y1="30.9531" y2="284.8281"/><line style="stroke:#000000;stroke-width:1.7;" x1="978" x2="978" y1="30.9531" y2="284.8281"/><rect fill="#FFFFFF" height="253.875" style="stroke:none;stroke-width:1.0;" width="500" x="123" y="30.9531"/><rect fill="#FFFFFF" height="253.875" style="stroke:none;stroke-width:1.0;" width="260" x="623" y="30.9531"/><line style="stroke:#AAAAAA;stroke-width:0.5;stroke-dasharray:3.0,5.0;" x1="23" x2="23" y1="30.9531" y2="284.8281"/><line style="stroke:#AAAAAA;stroke-width:0.5;stroke-dasharray:3.0,5.0;" x1="73" x2="73" y1="30.9531" y2="284.8281"/><line style="stroke:#AAAAAA;stroke-width:0.5;stroke-dasharray:3.0,5.0;" x1="123" x2="123" y1="30.9531" y2="284.8281"/><line style="stroke:#AAAAAA;stroke-width:0.5;stroke-dasharray:3.0,5.0;" x1="173" x2="173" y1="30.9531" y2="284.8281"/><line style="stroke:#AAAAAA;stroke-width:0.5;stroke-dasharray:3.0,5.0;" x1="223" x2="223" y1="30.9531" y2="284.8281"/><line style="stroke:#AAAAAA;stroke-width:0.5;stroke-dasharray:3.0,5.0;" x1="273" x2="273" y1="30.9531" y2="284.8281"/><line style="stroke:#AAAAAA;stroke-width:0.5;stroke-dasharray:3.0,5.0;" x1="323" x2="323" y1="30.9531" y2="284.8281"/><line style="stroke:#AAAAAA;stroke-width:0.5;stroke-dasharray:3.0,5.0;" x1="373" x2="373" y1="30.9531" y2="284.8281"/><line style="stroke:#AAAAAA;stroke-width:0.5;stroke-dasharray:3.0,5.0;" x1="423" x2="423" y1="30.9531" y2="284.8281"/><line style="stroke:#AAAAAA;stroke-width:0.5;stroke-dasharray:3.0,5.0;" x1="473" x2="473" y1="30.9531" y2="284.8281"/><line style="stroke:#AAAAAA;stroke-width:0.5;stroke-dasharray:3.0,5.0;" x1="523" x2="523" y1="30.9531" y2="284.8281"/><line style="stroke:#AAAAAA;stroke-width:0.5;stroke-dasharray:3.0,5.0;" x1="573" x2="573" y1="30.9531" y2="284.8281"/><line style="stroke:#AAAAAA;stroke-width:0.5;stroke-dasharray:3.0,5.0;" x1="623" x2="623" y1="30.9531" y2="284.8281"/><line style="stroke:#AAAAAA;stroke-width:0.5;stroke-dasharray:3.0,5.0;" x1="673" x2="673" y1="30.9531" y2="284.8281"/><line style="stroke:#AAAAAA;stroke-width:0.5;stroke-dasharray:3.0,5.0;" x1="723" x2="723" y1="30.9531" y2="284.8281"/><line style="stroke:#AAAAAA;stroke-width:0.5;stroke-dasharray:3.0,5.0;" x1="773" x2="773" y1="30.9531" y2="284.8281"/><line style="stroke:#AAAAAA;stroke-width:0.5;stroke-dasharray:3.0,5.0;" x1="823" x2="823" y1="30.9531" y2="284.8281"/><line style="stroke:#AAAAAA;stroke-width:0.5;stroke-dasharray:3.0,5.0;" x1="873" x2="873" y1="30.9531" y2="284.8281"/><line style="stroke:#AAAAAA;stroke-width:0.5;stroke-dasharray:3.0,5.0;" x1="923" x2="923" y1="30.9531" y2="284.8281"/><line style="stroke:#AAAAAA;stroke-width:0.5;stroke-dasharray:3.0,5.0;" x1="973" x2="973" y1="30.9531" y2="284.8281"/><line style="stroke:#000000;stroke-width:1.7;" x1="10" x2="978" y1="30.9531" y2="30.9531"/><text fill="#000000" font-family="sans-serif" font-size="12" lengthAdjust="spacing" textLength="90" x="15" y="42.0918">Collected calls</text><line style="stroke:#000000;stroke-width:1.0;" x1="10" x2="106" y1="45.9219" y2="45.9219"/><line style="stroke:#000000;stroke-width:1.0;" x1="106" x2="116" y1="45.9219" y2="30.9531"/><text fill="#000000" font-family="sans-serif" font-size="12" lengthAdjust="spacing" textLength="8" x="15" y="170.0449">0</text><text fill="#000000" font-family="sans-serif" font-size="12" lengthAdjust="spacing" textLength="8" x="15" y="150.0449">1</text><text fill="#000000" font-family="sans-serif" font-size="12" lengthAdjust="spacing" textLength="8" x="15" y="130.0449">2</text><text fill="#000000" font-family="sans-serif" font-size="12" lengthAdjust="spacing" textLength="8" x="15" y="110.0449">3</text><text fill="#000000" font-family="sans-serif" font-size="12" lengthAdjust="spacing" textLength="8" x="15" y="90.0449">4</text><text fill="#000000" font-family="sans-serif" font-size="12" lengthAdjust="spacing" textLength="8" x="15" y="70.0449">5</text><line style="stroke:#038048;stroke-width:1.5;" x1="23" x2="123" y1="164.8906" y2="164.8906"/><line style="stroke:#038048;stroke-width:1.5;" x1="123" x2="323" y1="144.8906" y2="144.8906"/><line style="stroke:#038048;stroke-width:1.5;" x1="323" x2="573" y1="124.8906" y2="124.8906"/><line style="stroke:#038048;stroke-width:1.5;" x1="573" x2="623" y1="104.8906" y2="104.8906"/><line style="stroke:#038048;stroke-width:1.5;" x1="623" x2="673" y1="164.8906" y2="164.8906"/><line style="stroke:#038048;stroke-width:1.5;" x1="673" x2="723" y1="144.8906" y2="144.8906"/><line style="stroke:#038048;stroke-width:1.5;" x1="723" x2="773" y1="124.8906" y2="124.8906"/><line style="stroke:#038048;stroke-width:1.5;" x1="773" x2="823" y1="104.8906" y2="104.8906"/><line style="stroke:#038048;stroke-width:1.5;" x1="823" x2="873" y1="84.8906" y2="84.8906"/><line style="stroke:#038048;stroke-width:1.5;" x1="873" x2="883" y1="64.8906" y2="64.8906"/><line style="stroke:#038048;stroke-width:1.5;" x1="883" x2="923" y1="164.8906" y2="164.8906"/><line style="stroke:#038048;stroke-width:1.5;" x1="923" x2="973" y1="164.8906" y2="164.8906"/><line style="stroke:#038048;stroke-width:1.5;" x1="123" x2="123" y1="144.8906" y2="164.8906"/><line style="stroke:#038048;stroke-width:1.5;" x1="323" x2="323" y1="124.8906" y2="144.8906"/><line style="stroke:#038048;stroke-width:1.5;" x1="573" x2="573" y1="104.8906" y2="124.8906"/><line style="stroke:#038048;stroke-width:1.5;" x1="623" x2="623" y1="104.8906" y2="164.8906"/><line style="stroke:#038048;stroke-width:1.5;" x1="673" x2="673" y1="144.8906" y2="164.8906"/><line style="stroke:#038048;stroke-width:1.5;" x1="723" x2="723" y1="124.8906" y2="144.8906"/><line style="stroke:#038048;stroke-width:1.5;" x1="773" x2="773" y1="104.8906" y2="124.8906"/><line style="stroke:#038048;stroke-width:1.5;" x1="823" x2="823" y1="84.8906" y2="104.8906"/><line style="stroke:#038048;stroke-width:1.5;" x1="873" x2="873" y1="64.8906" y2="84.8906"/><line style="stroke:#038048;stroke-width:1.5;" x1="883" x2="883" y1="64.8906" y2="164.8906"/><line style="stroke:#038048;stroke-width:1.5;" x1="923" x2="923" y1="164.8906" y2="164.8906"/><line style="stroke:#000000;stroke-width:1.7;" x1="10" x2="978" y1="176.8906" y2="176.8906"/><text fill="#000000" font-family="sans-serif" font-size="12" lengthAdjust="spacing" textLength="58" x="15" y="188.0293">Batch #1</text><line style="stroke:#000000;stroke-width:1.0;" x1="10" x2="74" y1="191.8594" y2="191.8594"/><line style="stroke:#000000;stroke-width:1.0;" x1="74" x2="84" y1="191.8594" y2="176.8906"/><polygon fill="#E0FFFF" points="135,196.8594,611,196.8594,623,208.8594,611,220.8594,135,220.8594,123,208.8594" style="stroke:#000000;stroke-width:1.5;"/><polygon fill="#CCFFCC" points="635,196.8594,973,196.8594,973,220.8594,635,220.8594,623,208.8594" style="stroke:#CCFFCC;stroke-width:1.5;"/><path d="M973,196.8594 L635,196.8594 L623,208.8594 L635,220.8594 L973,220.8594 " fill="#CCFFCC" style="stroke:#038048;stroke-width:1.5;"/><text fill="#000000" font-family="sans-serif" font-size="12" lengthAdjust="spacing" textLength="73" x="336.5" y="213.0137">COLLECTING</text><text fill="#000000" font-family="sans-serif" font-size="12" lengthAdjust="spacing" textLength="68" x="635" y="213.0137">EXECUTING</text><line style="stroke:#000000;stroke-width:1.7;" x1="10" x2="978" y1="230.8594" y2="230.8594"/><text fill="#000000" font-family="sans-serif" font-size="12" lengthAdjust="spacing" textLength="58" x="15" y="241.998">Batch #2</text><line style="stroke:#000000;stroke-width:1.0;" x1="10" x2="74" y1="245.8281" y2="245.8281"/><line style="stroke:#000000;stroke-width:1.0;" x1="74" x2="84" y1="245.8281" y2="230.8594"/><polygon fill="#E0FFFF" points="635,250.8281,871,250.8281,883,262.8281,871,274.8281,635,274.8281,623,262.8281" style="stroke:#000000;stroke-width:1.5;"/><polygon fill="#CCFFCC" points="895,250.8281,973,250.8281,973,274.8281,895,274.8281,883,262.8281" style="stroke:#CCFFCC;stroke-width:1.5;"/><path d="M973,250.8281 L895,250.8281 L883,262.8281 L895,274.8281 L973,274.8281 " fill="#CCFFCC" style="stroke:#038048;stroke-width:1.5;"/><text fill="#000000" font-family="sans-serif" font-size="12" lengthAdjust="spacing" textLength="73" x="716.5" y="266.9824">COLLECTING</text><text fill="#000000" font-family="sans-serif" font-size="12" lengthAdjust="spacing" textLength="68" x="895" y="266.9824">EXECUTING</text><line style="stroke:#000000;stroke-width:2.0;" x1="23" x2="23" y1="284.8281" y2="289.8281"/><line style="stroke:#000000;stroke-width:2.0;" x1="73" x2="73" y1="284.8281" y2="289.8281"/><line style="stroke:#000000;stroke-width:2.0;" x1="123" x2="123" y1="284.8281" y2="289.8281"/><line style="stroke:#000000;stroke-width:2.0;" x1="173" x2="173" y1="284.8281" y2="289.8281"/><line style="stroke:#000000;stroke-width:2.0;" x1="223" x2="223" y1="284.8281" y2="289.8281"/><line style="stroke:#000000;stroke-width:2.0;" x1="273" x2="273" y1="284.8281" y2="289.8281"/><line style="stroke:#000000;stroke-width:2.0;" x1="323" x2="323" y1="284.8281" y2="289.8281"/><line style="stroke:#000000;stroke-width:2.0;" x1="373" x2="373" y1="284.8281" y2="289.8281"/><line style="stroke:#000000;stroke-width:2.0;" x1="423" x2="423" y1="284.8281" y2="289.8281"/><line style="stroke:#000000;stroke-width:2.0;" x1="473" x2="473" y1="284.8281" y2="289.8281"/><line style="stroke:#000000;stroke-width:2.0;" x1="523" x2="523" y1="284.8281" y2="289.8281"/><line style="stroke:#000000;stroke-width:2.0;" x1="573" x2="573" y1="284.8281" y2="289.8281"/><line style="stroke:#000000;stroke-width:2.0;" x1="623" x2="623" y1="284.8281" y2="289.8281"/><line style="stroke:#000000;stroke-width:2.0;" x1="673" x2="673" y1="284.8281" y2="289.8281"/><line style="stroke:#000000;stroke-width:2.0;" x1="723" x2="723" y1="284.8281" y2="289.8281"/><line style="stroke:#000000;stroke-width:2.0;" x1="773" x2="773" y1="284.8281" y2="289.8281"/><line style="stroke:#000000;stroke-width:2.0;" x1="823" x2="823" y1="284.8281" y2="289.8281"/><line style="stroke:#000000;stroke-width:2.0;" x1="873" x2="873" y1="284.8281" y2="289.8281"/><line style="stroke:#000000;stroke-width:2.0;" x1="923" x2="923" y1="284.8281" y2="289.8281"/><line style="stroke:#000000;stroke-width:2.0;" x1="973" x2="973" y1="284.8281" y2="289.8281"/><line style="stroke:#000000;stroke-width:2.0;" x1="23" x2="973" y1="284.8281" y2="284.8281"/><text fill="#000000" font-family="sans-serif" font-size="12" lengthAdjust="spacing" textLength="8" x="19" y="301.9668">0</text><text fill="#000000" font-family="sans-serif" font-size="12" lengthAdjust="spacing" textLength="8" x="119" y="301.9668">2</text><text fill="#000000" font-family="sans-serif" font-size="12" lengthAdjust="spacing" textLength="8" x="319" y="301.9668">6</text><text fill="#000000" font-family="sans-serif" font-size="12" lengthAdjust="spacing" textLength="16" x="565" y="301.9668">11</text><text fill="#000000" font-family="sans-serif" font-size="12" lengthAdjust="spacing" textLength="16" x="615" y="301.9668">12</text><text fill="#000000" font-family="sans-serif" font-size="12" lengthAdjust="spacing" textLength="16" x="665" y="301.9668">13</text><text fill="#000000" font-family="sans-serif" font-size="12" lengthAdjust="spacing" textLength="16" x="715" y="301.9668">14</text><text fill="#000000" font-family="sans-serif" font-size="12" lengthAdjust="spacing" textLength="16" x="765" y="301.9668">15</text><text fill="#000000" font-family="sans-serif" font-size="12" lengthAdjust="spacing" textLength="16" x="815" y="301.9668">16</text><text fill="#000000" font-family="sans-serif" font-size="12" lengthAdjust="spacing" textLength="16" x="865" y="301.9668">17</text><text fill="#000000" font-family="sans-serif" font-size="12" lengthAdjust="spacing" textLength="16" x="915" y="301.9668">18</text><line style="stroke:#000000;stroke-width:2.0;stroke-dasharray:4.0,4.0;" x1="123" x2="123" y1="30.9531" y2="284.8281"/><line style="stroke:#000000;stroke-width:2.0;stroke-dasharray:4.0,4.0;" x1="623" x2="623" y1="30.9531" y2="284.8281"/><text fill="#000000" font-family="sans-serif" font-size="12" lengthAdjust="spacing" textLength="121" x="126" y="44.0918">Leeway ms elapsed</text><line style="stroke:#000000;stroke-width:2.0;stroke-dasharray:4.0,4.0;" x1="623" x2="623" y1="30.9531" y2="284.8281"/><line style="stroke:#000000;stroke-width:2.0;stroke-dasharray:4.0,4.0;" x1="883" x2="883" y1="30.9531" y2="284.8281"/><text fill="#000000" font-family="sans-serif" font-size="12" lengthAdjust="spacing" textLength="120" x="626" y="44.0918">Max count reached</text><rect fill="#DDDDDD" height="26.2969" rx="5" ry="5" style="stroke:#000000;stroke-width:1.0;" width="316" x="335.5" y="306.7969"/><text fill="#000000" font-family="sans-serif" font-size="14" lengthAdjust="spacing" textLength="304" x="341.5" y="324.792">@aggregate(leeway_ms=10, max_count=5)</text><!--MD5=[a2faf8d095e1dc9ad211155cd294c7e3]
@startuml
title: Execution flow

legend
@aggregate(leeway_ms=10, max_count=5)
end legend

robust "Collected calls" as cc
concise "Batch #1" as b1
concise "Batch #2" as b2

@cc
0 is 0
+2 is 1
+4 is 2
+5 is 3
+1 is 0
+1 is 1
+1 is 2
+1 is 3
+1 is 4
+1 is 5
+0.2 is 0
+0.8 is 0

@b1
2 is COLLECTING #LightCyan;line:black
+10 is EXECUTING #ccffcc

@b2
12 is COLLECTING #LightCyan;line:black
+5.2 is EXECUTING #ccffcc

highlight 2 to 12 #White:Leeway ms elapsed
highlight 12 to 17.2 #White:Max count reached
@enduml

PlantUML version 1.2021.4(Sun Apr 04 08:49:39 UTC 2021)
(GPL source distribution)
Java Runtime: OpenJDK Runtime Environment
JVM: OpenJDK 64-Bit Server VM
Default Encoding: UTF-8
Language: en
Country: null
--></g></svg>
