<?xml version="1.0" encoding="UTF-8" standalone="no"?><svg xmlns="http://www.w3.org/2000/svg" xmlns:xlink="http://www.w3.org/1999/xlink" contentScriptType="application/ecmascript" contentStyleType="text/css" height="352px" preserveAspectRatio="none" style="width:1020px;height:352px;" version="1.1" viewBox="0 0 1020 352" width="1020px" zoomAndPan="magnify"><defs/><rect width="100%" height="100%" fill="white"/><g><text fill="#000000" font-family="sans-serif" font-size="18" lengthAdjust="spacing" textLength="179" x="417" y="26.708">State transition flow</text><line style="stroke:#000000;stroke-width:1.7;" x1="10" x2="10" y1="30.9531" y2="282.8281"/><line style="stroke:#000000;stroke-width:1.7;" x1="1003" x2="1003" y1="30.9531" y2="282.8281"/><line style="stroke:#AAAAAA;stroke-width:0.5;stroke-dasharray:3.0,5.0;" x1="98" x2="98" y1="30.9531" y2="282.8281"/><line style="stroke:#AAAAAA;stroke-width:0.5;stroke-dasharray:3.0,5.0;" x1="148" x2="148" y1="30.9531" y2="282.8281"/><line style="stroke:#AAAAAA;stroke-width:0.5;stroke-dasharray:3.0,5.0;" x1="198" x2="198" y1="30.9531" y2="282.8281"/><line style="stroke:#AAAAAA;stroke-width:0.5;stroke-dasharray:3.0,5.0;" x1="248" x2="248" y1="30.9531" y2="282.8281"/><line style="stroke:#AAAAAA;stroke-width:0.5;stroke-dasharray:3.0,5.0;" x1="298" x2="298" y1="30.9531" y2="282.8281"/><line style="stroke:#AAAAAA;stroke-width:0.5;stroke-dasharray:3.0,5.0;" x1="348" x2="348" y1="30.9531" y2="282.8281"/><line style="stroke:#AAAAAA;stroke-width:0.5;stroke-dasharray:3.0,5.0;" x1="398" x2="398" y1="30.9531" y2="282.8281"/><line style="stroke:#AAAAAA;stroke-width:0.5;stroke-dasharray:3.0,5.0;" x1="448" x2="448" y1="30.9531" y2="282.8281"/><line style="stroke:#AAAAAA;stroke-width:0.5;stroke-dasharray:3.0,5.0;" x1="498" x2="498" y1="30.9531" y2="282.8281"/><line style="stroke:#AAAAAA;stroke-width:0.5;stroke-dasharray:3.0,5.0;" x1="548" x2="548" y1="30.9531" y2="282.8281"/><line style="stroke:#AAAAAA;stroke-width:0.5;stroke-dasharray:3.0,5.0;" x1="598" x2="598" y1="30.9531" y2="282.8281"/><line style="stroke:#AAAAAA;stroke-width:0.5;stroke-dasharray:3.0,5.0;" x1="648" x2="648" y1="30.9531" y2="282.8281"/><line style="stroke:#AAAAAA;stroke-width:0.5;stroke-dasharray:3.0,5.0;" x1="698" x2="698" y1="30.9531" y2="282.8281"/><line style="stroke:#AAAAAA;stroke-width:0.5;stroke-dasharray:3.0,5.0;" x1="748" x2="748" y1="30.9531" y2="282.8281"/><line style="stroke:#AAAAAA;stroke-width:0.5;stroke-dasharray:3.0,5.0;" x1="798" x2="798" y1="30.9531" y2="282.8281"/><line style="stroke:#AAAAAA;stroke-width:0.5;stroke-dasharray:3.0,5.0;" x1="848" x2="848" y1="30.9531" y2="282.8281"/><line style="stroke:#AAAAAA;stroke-width:0.5;stroke-dasharray:3.0,5.0;" x1="898" x2="898" y1="30.9531" y2="282.8281"/><line style="stroke:#AAAAAA;stroke-width:0.5;stroke-dasharray:3.0,5.0;" x1="948" x2="948" y1="30.9531" y2="282.8281"/><line style="stroke:#AAAAAA;stroke-width:0.5;stroke-dasharray:3.0,5.0;" x1="998" x2="998" y1="30.9531" y2="282.8281"/><line style="stroke:#000000;stroke-width:1.7;" x1="10" x2="1003" y1="30.9531" y2="30.9531"/><text fill="#000000" font-family="sans-serif" font-size="12" lengthAdjust="spacing" textLength="104" x="15" y="42.0918">Actual error rate</text><line style="stroke:#000000;stroke-width:1.0;" x1="10" x2="120" y1="45.9219" y2="45.9219"/><line style="stroke:#000000;stroke-width:1.0;" x1="120" x2="130" y1="45.9219" y2="30.9531"/><text fill="#000000" font-family="sans-serif" font-size="12" lengthAdjust="spacing" textLength="20" x="73" y="136.0762">0.0</text><text fill="#000000" font-family="sans-serif" font-size="12" lengthAdjust="spacing" textLength="20" x="73" y="116.0762">0.4</text><text fill="#000000" font-family="sans-serif" font-size="12" lengthAdjust="spacing" textLength="20" x="73" y="96.0762">0.5</text><text fill="#000000" font-family="sans-serif" font-size="12" lengthAdjust="spacing" textLength="20" x="73" y="76.0762">0.6</text><text fill="#000000" font-family="sans-serif" font-size="12" lengthAdjust="spacing" textLength="20" x="73" y="56.0762">0.7</text><line style="stroke:#038048;stroke-width:1.5;" x1="98" x2="148" y1="130.9219" y2="130.9219"/><line style="stroke:#038048;stroke-width:1.5;" x1="148" x2="198" y1="110.9219" y2="110.9219"/><line style="stroke:#038048;stroke-width:1.5;" x1="198" x2="348" y1="90.9219" y2="90.9219"/><line style="stroke:#038048;stroke-width:1.5;" x1="348" x2="448" y1="110.9219" y2="110.9219"/><line style="stroke:#038048;stroke-width:1.5;" x1="448" x2="648" y1="70.9219" y2="70.9219"/><line style="stroke:#038048;stroke-width:1.5;" x1="648" x2="848" y1="50.9219" y2="50.9219"/><line style="stroke:#038048;stroke-width:1.5;" x1="848" x2="998" y1="110.9219" y2="110.9219"/><line style="stroke:#038048;stroke-width:1.5;" x1="148" x2="148" y1="110.9219" y2="130.9219"/><line style="stroke:#038048;stroke-width:1.5;" x1="198" x2="198" y1="90.9219" y2="110.9219"/><line style="stroke:#038048;stroke-width:1.5;" x1="348" x2="348" y1="90.9219" y2="110.9219"/><line style="stroke:#038048;stroke-width:1.5;" x1="448" x2="448" y1="70.9219" y2="110.9219"/><line style="stroke:#038048;stroke-width:1.5;" x1="648" x2="648" y1="50.9219" y2="70.9219"/><line style="stroke:#038048;stroke-width:1.5;" x1="848" x2="848" y1="50.9219" y2="110.9219"/><line style="stroke:#000000;stroke-width:1.7;" x1="10" x2="1003" y1="142.9219" y2="142.9219"/><text fill="#000000" font-family="sans-serif" font-size="12" lengthAdjust="spacing" textLength="62" x="15" y="154.0605">Call result</text><line style="stroke:#000000;stroke-width:1.0;" x1="10" x2="78" y1="157.8906" y2="157.8906"/><line style="stroke:#000000;stroke-width:1.0;" x1="78" x2="88" y1="157.8906" y2="142.9219"/><text fill="#000000" font-family="sans-serif" font-size="12" lengthAdjust="spacing" textLength="16" x="15" y="208.0449">OK</text><text fill="#000000" font-family="sans-serif" font-size="12" lengthAdjust="spacing" textLength="41" x="15" y="188.0449">ERROR</text><text fill="#000000" font-family="sans-serif" font-size="12" lengthAdjust="spacing" textLength="83" x="15" y="168.0449">CircuitBroken</text><line style="stroke:#038048;stroke-width:1.5;" x1="98" x2="148" y1="202.8906" y2="202.8906"/><rect fill="#D7E0F2" height="20" style="stroke:#038048;stroke-width:1.5;" width="50" x="148" y="182.8906"/><line style="stroke:#038048;stroke-width:1.5;" x1="148" x2="148" y1="182.8906" y2="202.8906"/><line style="stroke:#038048;stroke-width:1.5;" x1="153" x2="153" y1="182.8906" y2="202.8906"/><line style="stroke:#038048;stroke-width:1.5;" x1="158" x2="158" y1="182.8906" y2="202.8906"/><line style="stroke:#038048;stroke-width:1.5;" x1="163" x2="163" y1="182.8906" y2="202.8906"/><line style="stroke:#038048;stroke-width:1.5;" x1="168" x2="168" y1="182.8906" y2="202.8906"/><line style="stroke:#038048;stroke-width:1.5;" x1="173" x2="173" y1="182.8906" y2="202.8906"/><line style="stroke:#038048;stroke-width:1.5;" x1="178" x2="178" y1="182.8906" y2="202.8906"/><line style="stroke:#038048;stroke-width:1.5;" x1="183" x2="183" y1="182.8906" y2="202.8906"/><line style="stroke:#038048;stroke-width:1.5;" x1="188" x2="188" y1="182.8906" y2="202.8906"/><line style="stroke:#038048;stroke-width:1.5;" x1="193" x2="193" y1="182.8906" y2="202.8906"/><line style="stroke:#038048;stroke-width:1.5;" x1="148" x2="198" y1="202.8906" y2="202.8906"/><line style="stroke:#038048;stroke-width:1.5;" x1="148" x2="198" y1="182.8906" y2="182.8906"/><line style="stroke:#038048;stroke-width:1.5;" x1="198" x2="298" y1="162.8906" y2="162.8906"/><rect fill="#D7E0F2" height="40" style="stroke:#038048;stroke-width:1.5;" width="50" x="298" y="162.8906"/><line style="stroke:#038048;stroke-width:1.5;" x1="298" x2="298" y1="162.8906" y2="202.8906"/><line style="stroke:#038048;stroke-width:1.5;" x1="303" x2="303" y1="162.8906" y2="202.8906"/><line style="stroke:#038048;stroke-width:1.5;" x1="308" x2="308" y1="162.8906" y2="202.8906"/><line style="stroke:#038048;stroke-width:1.5;" x1="313" x2="313" y1="162.8906" y2="202.8906"/><line style="stroke:#038048;stroke-width:1.5;" x1="318" x2="318" y1="162.8906" y2="202.8906"/><line style="stroke:#038048;stroke-width:1.5;" x1="323" x2="323" y1="162.8906" y2="202.8906"/><line style="stroke:#038048;stroke-width:1.5;" x1="328" x2="328" y1="162.8906" y2="202.8906"/><line style="stroke:#038048;stroke-width:1.5;" x1="333" x2="333" y1="162.8906" y2="202.8906"/><line style="stroke:#038048;stroke-width:1.5;" x1="338" x2="338" y1="162.8906" y2="202.8906"/><line style="stroke:#038048;stroke-width:1.5;" x1="343" x2="343" y1="162.8906" y2="202.8906"/><line style="stroke:#038048;stroke-width:1.5;" x1="298" x2="348" y1="202.8906" y2="202.8906"/><line style="stroke:#038048;stroke-width:1.5;" x1="298" x2="348" y1="162.8906" y2="162.8906"/><line style="stroke:#038048;stroke-width:1.5;" x1="348" x2="398" y1="202.8906" y2="202.8906"/><line style="stroke:#038048;stroke-width:1.5;" x1="398" x2="448" y1="202.8906" y2="202.8906"/><rect fill="#D7E0F2" height="20" style="stroke:#038048;stroke-width:1.5;" width="50" x="448" y="182.8906"/><line style="stroke:#038048;stroke-width:1.5;" x1="448" x2="448" y1="182.8906" y2="202.8906"/><line style="stroke:#038048;stroke-width:1.5;" x1="453" x2="453" y1="182.8906" y2="202.8906"/><line style="stroke:#038048;stroke-width:1.5;" x1="458" x2="458" y1="182.8906" y2="202.8906"/><line style="stroke:#038048;stroke-width:1.5;" x1="463" x2="463" y1="182.8906" y2="202.8906"/><line style="stroke:#038048;stroke-width:1.5;" x1="468" x2="468" y1="182.8906" y2="202.8906"/><line style="stroke:#038048;stroke-width:1.5;" x1="473" x2="473" y1="182.8906" y2="202.8906"/><line style="stroke:#038048;stroke-width:1.5;" x1="478" x2="478" y1="182.8906" y2="202.8906"/><line style="stroke:#038048;stroke-width:1.5;" x1="483" x2="483" y1="182.8906" y2="202.8906"/><line style="stroke:#038048;stroke-width:1.5;" x1="488" x2="488" y1="182.8906" y2="202.8906"/><line style="stroke:#038048;stroke-width:1.5;" x1="493" x2="493" y1="182.8906" y2="202.8906"/><line style="stroke:#038048;stroke-width:1.5;" x1="448" x2="498" y1="202.8906" y2="202.8906"/><line style="stroke:#038048;stroke-width:1.5;" x1="448" x2="498" y1="182.8906" y2="182.8906"/><line style="stroke:#038048;stroke-width:1.5;" x1="498" x2="598" y1="162.8906" y2="162.8906"/><rect fill="#D7E0F2" height="20" style="stroke:#038048;stroke-width:1.5;" width="200" x="598" y="162.8906"/><line style="stroke:#038048;stroke-width:1.5;" x1="598" x2="598" y1="162.8906" y2="182.8906"/><line style="stroke:#038048;stroke-width:1.5;" x1="603" x2="603" y1="162.8906" y2="182.8906"/><line style="stroke:#038048;stroke-width:1.5;" x1="608" x2="608" y1="162.8906" y2="182.8906"/><line style="stroke:#038048;stroke-width:1.5;" x1="613" x2="613" y1="162.8906" y2="182.8906"/><line style="stroke:#038048;stroke-width:1.5;" x1="618" x2="618" y1="162.8906" y2="182.8906"/><line style="stroke:#038048;stroke-width:1.5;" x1="623" x2="623" y1="162.8906" y2="182.8906"/><line style="stroke:#038048;stroke-width:1.5;" x1="628" x2="628" y1="162.8906" y2="182.8906"/><line style="stroke:#038048;stroke-width:1.5;" x1="633" x2="633" y1="162.8906" y2="182.8906"/><line style="stroke:#038048;stroke-width:1.5;" x1="638" x2="638" y1="162.8906" y2="182.8906"/><line style="stroke:#038048;stroke-width:1.5;" x1="643" x2="643" y1="162.8906" y2="182.8906"/><line style="stroke:#038048;stroke-width:1.5;" x1="648" x2="648" y1="162.8906" y2="182.8906"/><line style="stroke:#038048;stroke-width:1.5;" x1="653" x2="653" y1="162.8906" y2="182.8906"/><line style="stroke:#038048;stroke-width:1.5;" x1="658" x2="658" y1="162.8906" y2="182.8906"/><line style="stroke:#038048;stroke-width:1.5;" x1="663" x2="663" y1="162.8906" y2="182.8906"/><line style="stroke:#038048;stroke-width:1.5;" x1="668" x2="668" y1="162.8906" y2="182.8906"/><line style="stroke:#038048;stroke-width:1.5;" x1="673" x2="673" y1="162.8906" y2="182.8906"/><line style="stroke:#038048;stroke-width:1.5;" x1="678" x2="678" y1="162.8906" y2="182.8906"/><line style="stroke:#038048;stroke-width:1.5;" x1="683" x2="683" y1="162.8906" y2="182.8906"/><line style="stroke:#038048;stroke-width:1.5;" x1="688" x2="688" y1="162.8906" y2="182.8906"/><line style="stroke:#038048;stroke-width:1.5;" x1="693" x2="693" y1="162.8906" y2="182.8906"/><line style="stroke:#038048;stroke-width:1.5;" x1="698" x2="698" y1="162.8906" y2="182.8906"/><line style="stroke:#038048;stroke-width:1.5;" x1="703" x2="703" y1="162.8906" y2="182.8906"/><line style="stroke:#038048;stroke-width:1.5;" x1="708" x2="708" y1="162.8906" y2="182.8906"/><line style="stroke:#038048;stroke-width:1.5;" x1="713" x2="713" y1="162.8906" y2="182.8906"/><line style="stroke:#038048;stroke-width:1.5;" x1="718" x2="718" y1="162.8906" y2="182.8906"/><line style="stroke:#038048;stroke-width:1.5;" x1="723" x2="723" y1="162.8906" y2="182.8906"/><line style="stroke:#038048;stroke-width:1.5;" x1="728" x2="728" y1="162.8906" y2="182.8906"/><line style="stroke:#038048;stroke-width:1.5;" x1="733" x2="733" y1="162.8906" y2="182.8906"/><line style="stroke:#038048;stroke-width:1.5;" x1="738" x2="738" y1="162.8906" y2="182.8906"/><line style="stroke:#038048;stroke-width:1.5;" x1="743" x2="743" y1="162.8906" y2="182.8906"/><line style="stroke:#038048;stroke-width:1.5;" x1="748" x2="748" y1="162.8906" y2="182.8906"/><line style="stroke:#038048;stroke-width:1.5;" x1="753" x2="753" y1="162.8906" y2="182.8906"/><line style="stroke:#038048;stroke-width:1.5;" x1="758" x2="758" y1="162.8906" y2="182.8906"/><line style="stroke:#038048;stroke-width:1.5;" x1="763" x2="763" y1="162.8906" y2="182.8906"/><line style="stroke:#038048;stroke-width:1.5;" x1="768" x2="768" y1="162.8906" y2="182.8906"/><line style="stroke:#038048;stroke-width:1.5;" x1="773" x2="773" y1="162.8906" y2="182.8906"/><line style="stroke:#038048;stroke-width:1.5;" x1="778" x2="778" y1="162.8906" y2="182.8906"/><line style="stroke:#038048;stroke-width:1.5;" x1="783" x2="783" y1="162.8906" y2="182.8906"/><line style="stroke:#038048;stroke-width:1.5;" x1="788" x2="788" y1="162.8906" y2="182.8906"/><line style="stroke:#038048;stroke-width:1.5;" x1="793" x2="793" y1="162.8906" y2="182.8906"/><line style="stroke:#038048;stroke-width:1.5;" x1="598" x2="798" y1="182.8906" y2="182.8906"/><line style="stroke:#038048;stroke-width:1.5;" x1="598" x2="798" y1="162.8906" y2="162.8906"/><rect fill="#D7E0F2" height="40" style="stroke:#038048;stroke-width:1.5;" width="50" x="798" y="162.8906"/><line style="stroke:#038048;stroke-width:1.5;" x1="798" x2="798" y1="162.8906" y2="202.8906"/><line style="stroke:#038048;stroke-width:1.5;" x1="803" x2="803" y1="162.8906" y2="202.8906"/><line style="stroke:#038048;stroke-width:1.5;" x1="808" x2="808" y1="162.8906" y2="202.8906"/><line style="stroke:#038048;stroke-width:1.5;" x1="813" x2="813" y1="162.8906" y2="202.8906"/><line style="stroke:#038048;stroke-width:1.5;" x1="818" x2="818" y1="162.8906" y2="202.8906"/><line style="stroke:#038048;stroke-width:1.5;" x1="823" x2="823" y1="162.8906" y2="202.8906"/><line style="stroke:#038048;stroke-width:1.5;" x1="828" x2="828" y1="162.8906" y2="202.8906"/><line style="stroke:#038048;stroke-width:1.5;" x1="833" x2="833" y1="162.8906" y2="202.8906"/><line style="stroke:#038048;stroke-width:1.5;" x1="838" x2="838" y1="162.8906" y2="202.8906"/><line style="stroke:#038048;stroke-width:1.5;" x1="843" x2="843" y1="162.8906" y2="202.8906"/><line style="stroke:#038048;stroke-width:1.5;" x1="798" x2="848" y1="202.8906" y2="202.8906"/><line style="stroke:#038048;stroke-width:1.5;" x1="798" x2="848" y1="162.8906" y2="162.8906"/><line style="stroke:#038048;stroke-width:1.5;" x1="848" x2="998" y1="202.8906" y2="202.8906"/><line style="stroke:#038048;stroke-width:1.5;" x1="148" x2="148" y1="182.8906" y2="202.8906"/><line style="stroke:#038048;stroke-width:1.5;" x1="198" x2="198" y1="162.8906" y2="202.8906"/><line style="stroke:#038048;stroke-width:1.5;" x1="298" x2="298" y1="162.8906" y2="202.8906"/><line style="stroke:#038048;stroke-width:1.5;" x1="348" x2="348" y1="162.8906" y2="202.8906"/><line style="stroke:#038048;stroke-width:1.5;" x1="398" x2="398" y1="202.8906" y2="202.8906"/><line style="stroke:#038048;stroke-width:1.5;" x1="448" x2="448" y1="182.8906" y2="202.8906"/><line style="stroke:#038048;stroke-width:1.5;" x1="498" x2="498" y1="162.8906" y2="202.8906"/><line style="stroke:#038048;stroke-width:1.5;" x1="598" x2="598" y1="162.8906" y2="182.8906"/><line style="stroke:#038048;stroke-width:1.5;" x1="798" x2="798" y1="162.8906" y2="202.8906"/><line style="stroke:#038048;stroke-width:1.5;" x1="848" x2="848" y1="162.8906" y2="202.8906"/><line style="stroke:#000000;stroke-width:1.7;" x1="10" x2="1003" y1="214.8906" y2="214.8906"/><text fill="#000000" font-family="sans-serif" font-size="12" lengthAdjust="spacing" textLength="90" x="15" y="226.0293">Effective state</text><line style="stroke:#000000;stroke-width:1.0;" x1="10" x2="106" y1="229.8594" y2="229.8594"/><line style="stroke:#000000;stroke-width:1.0;" x1="106" x2="116" y1="229.8594" y2="214.8906"/><polygon fill="#CCFFCC" points="110,248.8281,186,248.8281,198,260.8281,186,272.8281,110,272.8281,98,260.8281" style="stroke:#038048;stroke-width:1.5;"/><polygon fill="#FFCCCC" points="210,248.8281,286,248.8281,298,260.8281,286,272.8281,210,272.8281,198,260.8281" style="stroke:#038048;stroke-width:1.5;"/><polygon fill="#FFFFCC" points="310,248.8281,386,248.8281,398,260.8281,386,272.8281,310,272.8281,298,260.8281" style="stroke:#038048;stroke-width:1.5;"/><polygon fill="#CCFFCC" points="410,248.8281,486,248.8281,498,260.8281,486,272.8281,410,272.8281,398,260.8281" style="stroke:#038048;stroke-width:1.5;"/><polygon fill="#FFCCCC" points="510,248.8281,586,248.8281,598,260.8281,586,272.8281,510,272.8281,498,260.8281" style="stroke:#038048;stroke-width:1.5;"/><polygon fill="#FFFFCC" points="610,248.8281,686,248.8281,698,260.8281,686,272.8281,610,272.8281,598,260.8281" style="stroke:#038048;stroke-width:1.5;"/><polygon fill="#FFCCCC" points="710,248.8281,786,248.8281,798,260.8281,786,272.8281,710,272.8281,698,260.8281" style="stroke:#038048;stroke-width:1.5;"/><polygon fill="#FFFFCC" points="810,248.8281,886,248.8281,898,260.8281,886,272.8281,810,272.8281,798,260.8281" style="stroke:#038048;stroke-width:1.5;"/><polygon fill="#CCFFCC" points="910,248.8281,998,248.8281,998,272.8281,910,272.8281,898,260.8281" style="stroke:#CCFFCC;stroke-width:1.5;"/><path d="M998,248.8281 L910,248.8281 L898,260.8281 L910,272.8281 L998,272.8281 " fill="#CCFFCC" style="stroke:#038048;stroke-width:1.5;"/><text fill="#000000" font-family="sans-serif" font-size="12" lengthAdjust="spacing" textLength="53" x="121.5" y="264.9824">PASSING</text><text fill="#000000" font-family="sans-serif" font-size="12" lengthAdjust="spacing" textLength="82" x="110" y="245.998">passing_time</text><text fill="#000000" font-family="sans-serif" font-size="12" lengthAdjust="spacing" textLength="49" x="223.5" y="264.9824">BROKEN</text><text fill="#000000" font-family="sans-serif" font-size="12" lengthAdjust="spacing" textLength="77" x="210" y="245.998">broken_time</text><text fill="#000000" font-family="sans-serif" font-size="12" lengthAdjust="spacing" textLength="78" x="309" y="264.9824">RECOVERING</text><text fill="#000000" font-family="sans-serif" font-size="12" lengthAdjust="spacing" textLength="86" x="310" y="245.998">recovery_time</text><text fill="#000000" font-family="sans-serif" font-size="12" lengthAdjust="spacing" textLength="53" x="421.5" y="264.9824">PASSING</text><text fill="#000000" font-family="sans-serif" font-size="12" lengthAdjust="spacing" textLength="49" x="523.5" y="264.9824">BROKEN</text><text fill="#000000" font-family="sans-serif" font-size="12" lengthAdjust="spacing" textLength="78" x="609" y="264.9824">RECOVERING</text><text fill="#000000" font-family="sans-serif" font-size="12" lengthAdjust="spacing" textLength="49" x="723.5" y="264.9824">BROKEN</text><text fill="#000000" font-family="sans-serif" font-size="12" lengthAdjust="spacing" textLength="78" x="809" y="264.9824">RECOVERING</text><text fill="#000000" font-family="sans-serif" font-size="12" lengthAdjust="spacing" textLength="53" x="910" y="264.9824">PASSING</text><line style="stroke:#000000;stroke-width:2.0;" x1="98" x2="98" y1="282.8281" y2="287.8281"/><line style="stroke:#000000;stroke-width:2.0;" x1="148" x2="148" y1="282.8281" y2="287.8281"/><line style="stroke:#000000;stroke-width:2.0;" x1="198" x2="198" y1="282.8281" y2="287.8281"/><line style="stroke:#000000;stroke-width:2.0;" x1="248" x2="248" y1="282.8281" y2="287.8281"/><line style="stroke:#000000;stroke-width:2.0;" x1="298" x2="298" y1="282.8281" y2="287.8281"/><line style="stroke:#000000;stroke-width:2.0;" x1="348" x2="348" y1="282.8281" y2="287.8281"/><line style="stroke:#000000;stroke-width:2.0;" x1="398" x2="398" y1="282.8281" y2="287.8281"/><line style="stroke:#000000;stroke-width:2.0;" x1="448" x2="448" y1="282.8281" y2="287.8281"/><line style="stroke:#000000;stroke-width:2.0;" x1="498" x2="498" y1="282.8281" y2="287.8281"/><line style="stroke:#000000;stroke-width:2.0;" x1="548" x2="548" y1="282.8281" y2="287.8281"/><line style="stroke:#000000;stroke-width:2.0;" x1="598" x2="598" y1="282.8281" y2="287.8281"/><line style="stroke:#000000;stroke-width:2.0;" x1="648" x2="648" y1="282.8281" y2="287.8281"/><line style="stroke:#000000;stroke-width:2.0;" x1="698" x2="698" y1="282.8281" y2="287.8281"/><line style="stroke:#000000;stroke-width:2.0;" x1="748" x2="748" y1="282.8281" y2="287.8281"/><line style="stroke:#000000;stroke-width:2.0;" x1="798" x2="798" y1="282.8281" y2="287.8281"/><line style="stroke:#000000;stroke-width:2.0;" x1="848" x2="848" y1="282.8281" y2="287.8281"/><line style="stroke:#000000;stroke-width:2.0;" x1="898" x2="898" y1="282.8281" y2="287.8281"/><line style="stroke:#000000;stroke-width:2.0;" x1="948" x2="948" y1="282.8281" y2="287.8281"/><line style="stroke:#000000;stroke-width:2.0;" x1="998" x2="998" y1="282.8281" y2="287.8281"/><line style="stroke:#000000;stroke-width:2.0;" x1="98" x2="998" y1="282.8281" y2="282.8281"/><text fill="#000000" font-family="sans-serif" font-size="12" lengthAdjust="spacing" textLength="8" x="94" y="299.9668">0</text><text fill="#000000" font-family="sans-serif" font-size="12" lengthAdjust="spacing" textLength="8" x="144" y="299.9668">5</text><text fill="#000000" font-family="sans-serif" font-size="12" lengthAdjust="spacing" textLength="16" x="190" y="299.9668">10</text><text fill="#000000" font-family="sans-serif" font-size="12" lengthAdjust="spacing" textLength="16" x="290" y="299.9668">20</text><text fill="#000000" font-family="sans-serif" font-size="12" lengthAdjust="spacing" textLength="16" x="340" y="299.9668">25</text><text fill="#000000" font-family="sans-serif" font-size="12" lengthAdjust="spacing" textLength="16" x="390" y="299.9668">30</text><text fill="#000000" font-family="sans-serif" font-size="12" lengthAdjust="spacing" textLength="16" x="440" y="299.9668">35</text><text fill="#000000" font-family="sans-serif" font-size="12" lengthAdjust="spacing" textLength="16" x="490" y="299.9668">40</text><text fill="#000000" font-family="sans-serif" font-size="12" lengthAdjust="spacing" textLength="16" x="590" y="299.9668">50</text><text fill="#000000" font-family="sans-serif" font-size="12" lengthAdjust="spacing" textLength="16" x="640" y="299.9668">55</text><text fill="#000000" font-family="sans-serif" font-size="12" lengthAdjust="spacing" textLength="16" x="690" y="299.9668">60</text><text fill="#000000" font-family="sans-serif" font-size="12" lengthAdjust="spacing" textLength="16" x="790" y="299.9668">70</text><text fill="#000000" font-family="sans-serif" font-size="12" lengthAdjust="spacing" textLength="16" x="840" y="299.9668">75</text><text fill="#000000" font-family="sans-serif" font-size="12" lengthAdjust="spacing" textLength="16" x="890" y="299.9668">80</text><text fill="#000000" font-family="sans-serif" font-size="12" lengthAdjust="spacing" textLength="16" x="940" y="299.9668">85</text><rect fill="#DDDDDD" height="26.2969" rx="5" ry="5" style="stroke:#000000;stroke-width:1.0;" width="363" x="324.5" y="304.7969"/><text fill="#000000" font-family="sans-serif" font-size="14" lengthAdjust="spacing" textLength="351" x="330.5" y="322.792">CircuitBereaker(error_rate=0.5, recovery_time=10)</text><!--MD5=[bbfcad2d3f3f38f4d09332235f7b048c]
@startuml
title: State transition flow

legend
CircuitBereaker(error_rate=0.5, recovery_time=10)
end legend

robust "Actual error rate" as err
robust "Call result" as cr
concise "Effective state" as es

@0
es is PASSING #ccffcc: passing_time
cr is OK
err is 0.0

@+5
err is 0.4
cr is {OK,ERROR}
@+5
err is 0.5
es is BROKEN #ffcccc: broken_time
cr is CircuitBroken

@+10
es is RECOVERING #ffffcc: recovery_time
cr is {OK,CircuitBroken}

@+5
err is 0.4
cr is OK

@+5
es is PASSING #ccffcc
cr is OK

@+5
err is 0.6
cr is {OK,ERROR}

@+5
es is BROKEN #ffcccc
cr is CircuitBroken

@+10
es is RECOVERING #ffffcc
cr is {ERROR,CircuitBroken}

@+5
err is 0.7

@+5
es is BROKEN #ffcccc

@+10
es is RECOVERING #ffffcc
cr is {OK,CircuitBroken}

@+5
err is 0.4
cr is OK

@+5
es is PASSING #ccffcc

@+5

@enduml

PlantUML version 1.2021.4(Sun Apr 04 08:49:39 UTC 2021)
(GPL source distribution)
Java Runtime: OpenJDK Runtime Environment
JVM: OpenJDK 64-Bit Server VM
Default Encoding: UTF-8
Language: en
Country: null
--></g></svg>
