<?xml version="1.0" encoding="UTF-8"?>
<svg width="400px" height="400px" viewBox="0 0 400 400" version="1.1" xmlns="http://www.w3.org/2000/svg" xmlns:xlink="http://www.w3.org/1999/xlink">
    <title>aiomisc-logo</title>
    <g id="Page-1" stroke="none" stroke-width="1" fill="none" fill-rule="evenodd">
        <rect id="Rectangle" fill-opacity="0" fill="#FFFFFF" x="0.5" y="0.5" width="399" height="399"></rect>
        <path d="M134.466062,117.537607 C138.779805,118.422811 142.85481,121.938849 145.210785,126.044113 C149.70822,133.880849 146.372391,142.152102 138.605222,146.663507 C130.838053,151.174912 121.572277,150.223048 117.074842,142.386312 C115.182648,139.089184 114.861213,135.372264 115.361268,131.835715 C116.370362,121.648625 113.245431,122.570471 106.123654,126.571973 L79.2701172,142.169313 L94.152956,168.10251 L94.1695859,168.152239 C95.9777755,171.551031 97.5997083,173.741026 98.8278724,174.933104 C100.055938,176.125011 100.722108,176.230402 100.926351,176.225697 C101.130581,176.220971 101.39068,176.163287 101.944333,175.491652 C102.497956,174.819967 103.123321,173.605065 103.601969,172.172062 C105.482397,166.542291 109.16216,163.007657 112.985284,161.306231 C116.808687,159.604499 120.639223,159.543363 123.593778,160.488809 C135.072344,164.161977 140.07827,176.094444 136.029942,185.653291 C134.180298,190.020413 130.48422,192.741983 126.749115,194.067103 C123.014058,195.392309 119.191975,195.554937 116.026625,194.212539 C114.500264,193.565251 112.145387,193.951021 111.418141,194.651517 C111.054508,195.001748 110.868611,195.281618 110.91576,196.181217 C110.962901,197.080804 111.428516,198.646728 112.894718,200.780693 L112.965135,200.882642 L134.359539,238.162176 L162.194766,221.994642 C165.9509,219.657185 169.918721,218.170833 173.752744,219.090342 C175.684737,219.553869 177.640896,221.027944 178.436131,223.119213 C179.208396,225.150296 179.051258,227.407179 178.328884,229.942072 C178.328128,229.950637 178.33197,229.957331 178.330099,229.964941 C176.802539,237.144127 183.580709,244.790821 190.867445,243.465252 L191.057509,243.426452 L191.254022,243.419444 C199.800498,243.036902 204.946528,230.412509 198.702899,224.393043 C198.247414,223.969644 196.892253,223.20701 195.247797,222.483891 C193.59089,221.755186 191.669206,220.997053 189.869296,219.977761 C188.069478,218.95853 186.154761,217.636908 185.332782,215.197538 C184.510698,212.757886 185.417003,209.971222 187.346708,207.564768 L187.512964,207.361056 L187.70858,207.188048 C198.007754,198.200717 211.636532,194.040819 221.985086,187.505297 L214.493662,174.883312 L214.31672,174.986085 L202.553837,154.48938 C195.4118,143.476658 194.926042,133.407901 209.214174,135.560195 C212.078539,135.978501 215.328519,136.147532 217.994137,134.599261 C224.330456,130.918937 226.027511,125.859124 222.358583,119.466054 C218.689655,113.072984 213.240991,111.595656 206.904672,115.27598 C203.585474,117.20387 201.41787,121.159548 200.709963,124.703012 C196.571221,134.141569 188.049521,130.645984 183.101081,120.593147 L166.501872,91.6691933 L166.306301,91.6161786 L133.84378,110.471384 C133.5859,110.585406 133.342417,110.701589 133.11396,110.823697 C129.688064,112.656285 129.608922,115.324489 134.466062,117.537607 Z" id="puzzle2" fill="#FFFFFF" fill-rule="nonzero"></path>
        <path d="M193.737429,51.48938 C195.665743,54.8047757 198.953237,56.7795148 202.495144,57.4878797 C212.177691,61.733367 206.955743,68.360503 199.726316,73.8507823 L171.342507,90.1177664 C171.273082,90.1575546 171.249606,90.2442975 171.289618,90.3130924 L191.03261,124.257684 C193.850443,126.640542 196.171963,127.153032 198.016613,122.258207 C198.891876,117.988732 201.310454,113.748016 205.376923,111.417491 C213.139364,106.968775 222.491733,109.925034 226.964973,117.61598 C231.437965,125.306502 229.760741,135.055767 221.9983,139.504483 C218.732603,141.376079 215.064242,141.705828 211.560382,141.209152 C203.497789,139.454965 202.368218,141.642588 204.253019,146.987844 L217.822975,170.318989 L217.776178,170.463547 L226.803436,185.616179 C235.606594,180.450058 246.820424,173.566838 254.88175,168.946829 L254.962025,168.900823 C258.358286,167.096619 260.551551,165.486823 261.742414,164.260802 C262.933177,163.035003 263.03314,162.360971 263.028351,162.157015 C263.023584,161.953097 262.965721,161.69328 262.294254,161.14023 C261.622707,160.587043 260.41714,159.956983 258.984678,159.478369 C253.357154,157.598285 249.822829,153.922204 248.12065,150.1038 C246.418169,146.285172 246.351792,142.473959 247.295476,139.523978 C248.89958,134.509896 252.091345,130.726786 255.96772,128.402676 C260.951452,125.414787 267.074795,124.834522 272.45011,127.110657 C276.815743,128.959532 279.528434,132.656615 280.854472,136.386968 C282.180509,140.117321 282.353592,143.928954 281.013386,147.08919 C280.367161,148.613139 280.748566,150.956078 281.449013,151.682521 C281.799233,152.045785 282.084162,152.240367 282.983246,152.193669 C283.882319,152.146955 285.447198,151.682737 287.579438,150.219479 L287.681554,150.149683 L317.813649,132.880743 L296.410396,96.0816264 C294.611,93.4490222 293.629487,91.0149699 293.510368,88.6825875 C293.388041,86.2901301 294.336569,84.0540002 295.855735,82.6133841 C298.894078,79.7319751 303.273818,79.4885379 306.889034,80.9916043 C308.052447,81.4752636 310.857858,81.6033152 313.408401,80.7078673 C315.958785,79.812539 318.191444,78.1210508 319.28789,75.5825485 C322.015436,69.2689943 319.057274,61.2603991 310.477344,58.5734875 C309.160778,58.1612308 306.454328,58.0966664 303.991296,59.1799299 C301.528222,60.2631212 299.163678,62.3084332 297.742914,66.4726452 C297.101012,68.3539876 296.260624,70.1356988 295.002314,71.6371995 C293.743875,73.1387739 291.838844,74.4343169 289.55005,74.4909411 C287.261084,74.5476636 285.106171,73.4160548 283.18129,71.5773747 C281.271415,69.7530925 279.427795,67.1389225 277.448965,63.4802012 L262.542696,37.8515016 L235.300826,53.4640315 C225.221796,58.4595967 216.040347,61.5754732 218.270969,46.7389057 C218.687877,43.8787432 218.426068,40.8914015 216.877497,38.2289057 C213.196705,31.9004331 205.029363,29.7361181 198.64128,33.3971787 C192.252081,37.0575986 190.05639,45.1604826 193.737429,51.48938 Z" id="puzzle1" stroke="#FFFFFF" stroke-width="5" fill-rule="nonzero"></path>
        <text id="AIOMISC" font-family="Arial-BoldMT, Arial" font-size="82" font-weight="bold" fill="#FFFFFF">
            <tspan x="24.6088867" y="323">AIOMISC</tspan>
        </text>
        <text id="miscellaneous-utils" font-family="Helvetica-Bold, Helvetica" font-size="24" font-weight="bold" fill="#FFFFFF">
            <tspan x="21.9394531" y="365">miscellaneous utils for asyncio</tspan>
        </text>
    </g>
</svg>
